<svg width="175" height="37" viewBox="0 0 175 37" fill="none" xmlns="http://www.w3.org/2000/svg">
<path d="M49.8418 3.10375C49.3083 2.84289 49.0786 3.34 48.7667 3.59234C48.6599 3.67375 48.5695 3.77951 48.4795 3.87714C47.6996 4.708 46.7884 5.25379 45.5981 5.18861C43.8582 5.09097 42.3721 5.63663 41.0588 6.9642C40.7797 5.32709 39.8522 4.34924 38.4404 3.72244C37.7017 3.39667 36.9548 3.07063 36.4375 2.36202C36.0764 1.8572 35.9778 1.29504 35.7973 0.741138C35.6824 0.407384 35.5672 0.0651171 35.1814 0.00791745C34.7628 -0.0572636 34.5984 0.292852 34.4345 0.586432C33.7778 1.7839 33.5233 3.10335 33.5481 4.43903C33.6057 7.44494 34.8779 9.83935 37.4063 11.542C37.6935 11.7376 37.7673 11.933 37.6773 12.2181C37.5048 12.8047 37.2996 13.3747 37.119 13.9613C37.0041 14.336 36.8314 14.4174 36.4293 14.2546C35.0422 13.6765 33.8435 12.8209 32.7845 11.7867C30.9868 10.0515 29.3617 8.13732 27.334 6.63842C26.8648 6.29226 26.3829 5.96351 25.8893 5.65286C23.8207 3.64914 26.1603 2.00352 26.7019 1.80824C27.2683 1.60445 26.899 0.904091 25.0682 0.912205C23.2377 0.920319 21.5631 1.53116 19.429 2.34579C19.117 2.46817 18.7888 2.55769 18.4521 2.63072C16.5149 2.26411 14.5038 2.1827 12.4023 2.41882C8.44557 2.85846 5.28551 4.72396 2.96251 7.90892C0.171708 11.738 -0.485187 16.0874 0.319329 20.6245C1.16478 25.4058 3.61087 29.3647 7.37048 32.4601C11.2696 35.669 15.7598 37.2413 20.8818 36.9399C23.9927 36.7608 27.457 36.3455 31.3642 33.0463C32.3493 33.5349 33.3834 33.7306 35.0992 33.8772C36.4208 33.9996 37.6931 33.812 38.6782 33.6086C40.2215 33.2828 40.1148 31.8572 39.5565 31.5968C35.0338 29.4954 36.0266 30.3506 35.1238 29.6582C37.1239 27.2979 40.0069 24.8573 41.614 18.2458C41.9994 16.6605 42.2407 14.8893 42.2407 13.2288C42.2407 12.8962 42.3145 12.7321 42.7251 12.6912C43.8578 12.5607 44.9576 12.2516 45.9674 11.6974C48.8978 10.1009 50.08 7.47806 50.3591 4.33394C50.4 3.85346 50.351 3.3561 49.8418 3.10375ZM24.3051 31.4007C19.9215 27.9637 17.7956 26.8311 16.9173 26.8801C16.0965 26.929 16.2442 27.8658 16.4247 28.4766C16.6134 29.0795 16.86 29.4948 17.2046 30.0242C17.4426 30.3746 17.6069 30.8956 16.9667 31.287C15.5549 32.1583 13.1004 30.9937 12.9853 30.9365C10.1287 29.2585 7.74 27.043 6.05709 24.013C4.43192 21.0966 3.48779 17.9692 3.33203 14.6294C3.29096 13.8231 3.52913 13.5376 4.33338 13.3913C5.3922 13.1956 6.48395 13.1548 7.54291 13.3095C12.0165 13.9613 15.8252 15.9569 19.0184 19.1173C20.8408 20.9172 22.2198 23.0679 23.6402 25.1693C25.1505 27.4011 26.7758 29.5272 28.8444 31.2703C29.575 31.8812 30.1576 32.3456 30.716 32.6878C29.0331 32.875 26.2256 32.9158 24.3051 31.4007ZM26.4252 17.7634C26.4947 17.4826 26.7481 17.2768 27.0549 17.2768C27.1306 17.277 27.2056 17.2907 27.2764 17.3173C27.3668 17.3501 27.4488 17.399 27.5146 17.472C27.6294 17.5863 27.6951 17.7491 27.6951 17.9201C27.6951 18.2786 27.4079 18.5635 27.0468 18.5635C26.8944 18.5649 26.7465 18.5114 26.6305 18.4128C26.5144 18.3143 26.4379 18.1772 26.415 18.0269C26.4008 17.9392 26.4042 17.8496 26.4252 17.7634ZM32.7205 21.3437C32.373 21.4762 32.0271 21.5802 31.6928 21.5937C31.0688 21.6262 30.3877 21.3737 30.0184 21.0642C29.4439 20.5837 29.0335 20.3151 28.8611 19.4758C28.7872 19.1173 28.8281 18.5635 28.8939 18.2458C29.0416 17.5616 28.8773 17.1217 28.3933 16.7226C27.9993 16.3968 27.4983 16.3073 26.9485 16.3073C26.7433 16.3073 26.5546 16.2178 26.415 16.1445C26.1851 16.0306 25.9964 15.7454 26.1769 15.395C26.2345 15.2812 26.5136 15.0041 26.5794 14.9554C27.3262 14.5317 28.1883 14.6702 28.9843 14.9878C29.723 15.2893 30.2814 15.8431 31.0858 16.625C31.9066 17.5697 32.0543 17.8305 32.5224 18.5392C32.8919 19.0929 33.2283 19.6633 33.4582 20.3147C33.5752 20.6554 33.4677 20.9453 33.1461 21.1497C33.0153 21.2329 32.8648 21.2886 32.7205 21.3437Z" fill="#4D6BFE"/>
<path d="M103.341 14.4395H103.898C103.96 14.3733 104.022 14.3066 104.088 14.2451C104.849 13.5266 106.022 13.2715 107.185 13.2715C108.985 13.2715 110.796 13.73 111.978 15.0156C113.159 16.3015 113.58 18.2734 113.58 20.2305C113.58 22.1875 113.159 24.1537 111.978 25.4395C110.796 26.7252 108.986 27.1835 107.185 27.1836H105.444V24.4043H107.185C108.262 24.4043 109.354 24.1297 110.063 23.3545C110.772 22.584 111.027 21.4026 111.027 20.2305C111.027 19.0534 110.772 17.8711 110.063 17.1006C109.354 16.3254 108.262 16.0508 107.185 16.0508C106.102 16.0508 105.015 16.3254 104.306 17.1006C103.597 17.8711 103.341 19.0534 103.341 20.2305V31.6514H100.282V13.2715H103.341V14.4395ZM169.981 20.041L175.002 27.6719H171.211L166.19 20.041L171.211 13.9102H175.002L169.981 20.041ZM67.5186 9.28613V27.6709H64.46V26.5029H63.8975C63.8407 26.5691 63.7791 26.6358 63.7129 26.6973C62.9471 27.411 61.7791 27.6709 60.6162 27.6709C58.8154 27.6709 57.005 27.2122 55.8232 25.9268C54.6414 24.6409 54.2207 22.669 54.2207 20.7119C54.2207 18.7549 54.6415 16.7887 55.8232 15.5029C57.005 14.2171 58.8152 13.7578 60.6162 13.7578H62.3564V16.5381H60.6162C59.5337 16.5381 58.4464 16.8125 57.7373 17.583C57.0284 18.3535 56.7735 19.5397 56.7734 20.7119C56.7734 21.889 57.0282 23.0712 57.7373 23.8418C58.4464 24.6123 59.5337 24.8906 60.6162 24.8906C61.6987 24.8906 62.786 24.6122 63.4951 23.8418C64.2042 23.0712 64.46 21.889 64.46 20.7119V9.28613H67.5186ZM76.2207 13.2715C78.0926 13.2716 79.9788 13.7489 81.2031 15.0771C82.4322 16.4055 82.8711 18.4437 82.8711 20.4717V21.5869H74.7266V19.3555H80.1348C80.0072 18.5378 79.7232 17.7865 79.2129 17.2334C78.4755 16.4346 77.3457 16.1505 76.2207 16.1504C75.1003 16.1504 73.9699 16.4345 73.2324 17.2334C72.4952 18.0323 72.2305 19.2569 72.2305 20.4717C72.2305 21.6863 72.4953 22.9102 73.2324 23.709C73.9699 24.5079 75.1003 24.792 76.2207 24.792C77.3457 24.7919 78.4755 24.5078 79.2129 23.709C79.3167 23.5957 79.4111 23.4731 79.4961 23.3457H82.5215C82.2568 24.3099 81.8318 25.1799 81.2031 25.8652C79.9741 27.1935 78.0926 27.6708 76.2207 27.6709C74.3487 27.6709 72.4664 27.1936 71.2373 25.8652C70.0131 24.537 69.5733 22.4948 69.5732 20.4717C69.5732 18.4437 70.013 16.4055 71.2373 15.0771C72.4664 13.7488 74.3487 13.2715 76.2207 13.2715ZM91.5732 13.2715C93.4452 13.2715 95.3323 13.7488 96.5566 15.0771C97.7857 16.4055 98.2246 18.4437 98.2246 20.4717V21.5869H90.0801V19.3555H95.4883C95.3607 18.5378 95.0767 17.7865 94.5664 17.2334C93.8289 16.4345 92.6985 16.1504 91.5781 16.1504C90.4531 16.1504 89.3233 16.4345 88.5859 17.2334C87.8487 18.0323 87.584 19.2569 87.584 20.4717C87.5841 21.6863 87.8488 22.9102 88.5859 23.709C89.3233 24.5078 90.4531 24.7919 91.5781 24.792C92.6985 24.792 93.8289 24.5079 94.5664 23.709C94.6702 23.5957 94.7647 23.4731 94.8496 23.3457H97.875C97.6103 24.3099 97.19 25.1799 96.5566 25.8652C95.3275 27.1936 93.4452 27.6709 91.5732 27.6709C89.7061 27.6708 87.82 27.1935 86.5957 25.8652C85.3667 24.537 84.9268 22.4948 84.9268 20.4717C84.9268 18.4437 85.3666 16.4055 86.5957 15.0771C87.82 13.7489 89.7061 13.2716 91.5732 13.2715ZM137.641 13.2715C139.513 13.2715 141.394 13.7489 142.623 15.0771C143.852 16.4055 144.292 18.4437 144.292 20.4717V21.5869H136.142V19.3555H141.555C141.427 18.5378 141.143 17.7865 140.633 17.2334C139.895 16.4345 138.766 16.1504 137.641 16.1504C136.52 16.1504 135.386 16.4345 134.653 17.2334C133.916 18.0323 133.65 19.2568 133.65 20.4717C133.65 21.6864 133.916 22.9102 134.653 23.709C135.386 24.5079 136.52 24.792 137.641 24.792C138.766 24.792 139.895 24.5079 140.633 23.709C140.737 23.5956 140.832 23.4733 140.917 23.3457H143.938C143.677 24.31 143.252 25.1798 142.623 25.8652C141.394 27.1935 139.513 27.6709 137.641 27.6709C135.769 27.6709 133.887 27.1935 132.658 25.8652C131.434 24.537 130.989 22.4948 130.989 20.4717C130.989 18.4437 131.434 16.4055 132.658 15.0771C133.887 13.7489 135.769 13.2715 137.641 13.2715ZM152.996 13.2715C154.868 13.2715 156.749 13.7489 157.979 15.0771C159.208 16.4055 159.647 18.4437 159.647 20.4717V21.5869H151.502V19.3555H156.91C156.783 18.5378 156.499 17.7865 155.988 17.2334C155.251 16.4345 154.121 16.1504 152.996 16.1504C151.876 16.1504 150.741 16.4345 150.008 17.2334C149.271 18.0323 149.006 19.257 149.006 20.4717C149.006 21.6862 149.271 22.9102 150.008 23.709C150.741 24.5079 151.876 24.792 152.996 24.792C154.121 24.792 155.251 24.5079 155.988 23.709C156.092 23.5957 156.187 23.4731 156.271 23.3457H159.298C159.033 24.31 158.607 25.1798 157.979 25.8652C156.749 27.1935 154.868 27.6709 152.996 27.6709C151.124 27.6709 149.243 27.1934 148.014 25.8652C146.789 24.537 146.345 22.4948 146.345 20.4717C146.345 18.4437 146.789 16.4055 148.014 15.0771C149.243 13.749 151.124 13.2715 152.996 13.2715ZM164.757 27.6709H161.698V8.64355H164.757V27.6709ZM122.289 13.2715C123.981 13.2715 125.683 13.5552 126.794 14.3398C127.905 15.1246 128.307 16.3255 128.307 17.5215H125.191C125.191 17.0582 125.002 16.5897 124.478 16.2871C123.958 15.9848 123.154 15.8711 122.355 15.8711C121.557 15.8711 120.752 15.9798 120.228 16.2871C119.703 16.5897 119.519 17.0583 119.519 17.5215C119.519 17.9846 119.703 18.4524 120.228 18.7549C120.752 19.0622 121.557 19.1709 122.355 19.1709H122.289C124.156 19.1709 126.042 19.4499 127.267 20.2344C128.496 21.0191 128.936 22.2249 128.936 23.4209C128.936 24.6122 128.496 25.8178 127.267 26.6025C126.042 27.3872 124.156 27.666 122.289 27.666C120.417 27.666 118.536 27.3872 117.307 26.6025C116.078 25.8178 115.638 24.6122 115.638 23.4209H119.226C119.226 23.8842 119.434 24.348 120.011 24.6553C120.592 24.9577 121.481 25.0664 122.36 25.0664C123.244 25.0664 124.133 24.9578 124.71 24.6553C125.291 24.3527 125.499 23.8841 125.499 23.4209C125.499 22.9578 125.291 22.4899 124.71 22.1826C124.133 21.8801 123.168 21.7715 122.289 21.7715C120.597 21.7715 118.895 21.4877 117.784 20.7031C116.673 19.9231 116.276 18.7175 116.276 17.5215C116.276 16.3255 116.673 15.1246 117.784 14.3398C118.895 13.5552 120.597 13.2715 122.289 13.2715Z" fill="#4D6BFE"/>
</svg>
