<svg width="170" height="32" viewBox="0 0 170 32" fill="none" xmlns="http://www.w3.org/2000/svg">
<path d="M118.351 6.66639C115.749 6.66639 113.891 7.55577 112.979 9.2389L112.49 10.1457V7.10596H108.251V25.6271H112.709V14.6088C112.709 11.9762 114.137 10.4656 116.631 10.4656C119.125 10.4656 120.369 11.9347 120.369 14.4994V25.6271H124.827V13.7026C124.827 9.30024 122.405 6.66699 118.351 6.66699L118.351 6.66639ZM96.7406 6.66639C91.4831 6.66639 88.2158 9.94667 88.2158 15.2312V17.832C88.2158 22.9102 91.5114 26.0678 96.8145 26.0678C100.36 26.0678 102.846 24.7653 104.411 22.093L101.646 20.5049C100.491 22.0473 98.646 23.0016 96.8145 23.0016C94.1296 23.0016 92.5254 21.3438 92.5254 18.565V17.829H104.973V14.7549C104.973 9.83362 101.741 6.66699 96.7406 6.66699V6.66639ZM100.918 14.8319H92.5254V14.3887C92.5254 11.3376 94.022 9.65683 96.7406 9.65683C99.4592 9.65683 100.918 11.3147 100.918 14.0935V14.8319ZM169.073 4.0566V0.513534H153.663V4.0566H159.067V22.0858H153.663V25.6271H169.073V22.0858H163.67V4.0566H169.073ZM52.2177 0C45.3331 0 41.0554 4.29292 41.0554 11.2016V14.9377C41.0554 21.8483 45.3313 26.1394 52.2177 26.1394C59.104 26.1394 63.3799 21.8483 63.3799 14.9377V11.2016C63.3781 4.29292 59.1004 0 52.2177 0ZM58.7752 15.1933C58.7752 19.7815 56.386 22.4141 52.2177 22.4141C48.0493 22.4141 45.6583 19.7815 45.6583 15.1933V10.9461C45.6583 6.3579 48.0475 3.72526 52.2159 3.72526C56.3842 3.72526 58.7734 6.3579 58.7734 10.9461L58.7752 15.1933ZM77.3744 6.67601C75.0363 6.67601 73.0095 7.64296 71.9559 9.26716L71.475 10.0056V7.10596H67.2388V32H71.6944V22.9848L72.1729 23.6926C73.1754 25.1785 75.1337 26.0678 77.4099 26.0678C81.2525 26.0678 85.1287 23.5543 85.1287 17.942V14.7886C85.1287 10.7476 82.7389 6.66639 77.372 6.66639L77.3738 6.67601H77.3744ZM80.6742 17.7297C80.6742 20.7148 78.9336 22.5699 76.1339 22.5699C73.5229 22.5699 71.6992 20.6107 71.6992 17.8037V15.0213C71.6992 12.171 73.5385 10.1812 76.1699 10.1812C78.951 10.1812 80.6785 12.0363 80.6785 15.0213L80.6749 17.7297H80.6742ZM137.143 0.522556L128.147 25.6271H132.668L134.39 20.2439H144.729L144.746 20.2968L146.449 25.6271H150.976L141.972 0.513534L137.142 0.523158L137.143 0.522556ZM135.502 16.7099L139.559 3.99948L143.575 16.6942L135.502 16.7093V16.7099ZM29.4777 13.0947C30.2014 10.9148 29.9508 8.52872 28.7907 6.54733C27.0459 3.50939 23.5393 1.94652 20.115 2.68075C17.1302 -0.640424 12.0199 -0.912225 8.69968 2.0734C7.64602 3.0211 6.85984 4.22858 6.42047 5.57617C4.1707 6.038 2.22927 7.44692 1.09266 9.44275C-0.67085 12.4759 -0.270531 16.3022 2.08262 18.9047C1.35654 21.0834 1.60478 23.4701 2.76363 25.4521C4.51031 28.4912 8.01929 30.0541 11.4453 29.3187C12.9696 31.0355 15.1587 32.0126 17.4541 31.9994C20.9643 32.0024 24.0742 29.7354 25.1459 26.392C27.3951 25.9295 29.3365 24.5206 30.4737 22.5254C32.2162 19.4977 31.8141 15.6918 29.4777 13.0953V13.0947ZM17.4541 29.9056C16.0531 29.908 14.6959 29.4167 13.6206 28.5177L13.8099 28.4106L20.1781 24.7329C20.5003 24.5435 20.6993 24.1983 20.7017 23.8243V14.8415L23.3938 16.3996C23.4209 16.4134 23.4395 16.4393 23.4443 16.4687V23.9121C23.4371 27.2188 20.7594 29.8977 17.4541 29.905V29.9056ZM4.57943 24.4051C3.87679 23.1917 3.62434 21.7689 3.86716 20.387L4.05649 20.5007L10.4308 24.1779C10.7517 24.3667 11.1502 24.3667 11.4712 24.1779L19.2579 19.6871V22.7972C19.2561 22.8296 19.2399 22.8597 19.214 22.879L12.7641 26.6006C9.8976 28.2525 6.23593 27.2705 4.58001 24.4051H4.57943ZM2.90247 10.5276C3.60992 9.30564 4.72667 8.37418 6.05502 7.89732V15.4669C6.05021 15.8391 6.24796 16.1849 6.57194 16.3689L14.3208 20.841L11.6286 22.3991C11.5992 22.4147 11.5637 22.4147 11.5343 22.3991L5.09693 18.6835C2.23649 17.025 1.25557 13.364 2.90247 10.4957V10.5276ZM25.0203 15.6684L17.2462 11.1517L19.9317 9.6003C19.9612 9.58466 19.9966 9.58466 20.0261 9.6003L26.4634 13.322C29.3287 14.9762 30.3108 18.6414 28.6573 21.5073C27.9613 22.7142 26.8667 23.6403 25.5618 24.1273V16.5577C25.5504 16.1861 25.3442 15.8482 25.0197 15.6684H25.0203ZM27.6998 11.6376L27.5105 11.524L21.1489 7.81494C20.8255 7.62552 20.4252 7.62552 20.1024 7.81494L12.3223 12.3057V9.1956C12.3193 9.16373 12.3337 9.13186 12.3602 9.11382L18.7975 5.39818C21.667 3.74451 25.3334 4.73069 26.9864 7.60146C27.6848 8.81375 27.9372 10.2323 27.7004 11.6112V11.6364L27.6998 11.6376ZM10.8533 17.1507L8.16113 15.5992C8.13409 15.583 8.11546 15.5547 8.11065 15.5234V8.09877C8.11486 4.78541 10.8034 2.10346 14.1147 2.10767C15.5121 2.10948 16.8657 2.59957 17.9404 3.49375L17.7511 3.60079L11.3828 7.27855C11.0607 7.46797 10.8617 7.81313 10.8593 8.18716L10.8533 17.1507ZM12.3157 13.9967L15.7832 11.9972L19.2573 13.9967V17.9955L15.7958 19.9956L12.3223 17.9955L12.3163 13.9967H12.3157Z" fill="white"/>
</svg>
